# xmcd CD database file
#
# Track frame offsets:
#	150
#	17095
#	38209
#	55151
#	87530
#	332550
#
# Disc length: 4440 seconds
#
# Revision: 3
# Processed by: cddbd v1.5PL3 Copyright (c) Steve Scherf et al.
# Submitted via: CDex 1.50beta8
#
DISCID=48115606
DTITLE=ニューマン カンパニーリミテッド - Birthday Heart
DYEAR=2003
DGENRE=Anime
TTITLE0=Birthday Heart
TTITLE1=海と月の光
TTITLE2=Birthday Heart(backing track)
TTITLE3=海と月の光(backing track)
TTITLE4=DETA
TTITLE5=DETA
EXTD=YEAR: 2003
EXTT0=
EXTT1=
EXTT2=
EXTT3=
EXTT4=
EXTT5=
PLAYORDER=
